<?xml version="1.0" encoding="utf-8"?>
<!-- Generator: Adobe Illustrator 21.1.0, SVG Export Plug-In . SVG Version: 6.00 Build 0)  -->
<svg version="1.1" id="Layer_1" xmlns="http://www.w3.org/2000/svg" xmlns:xlink="http://www.w3.org/1999/xlink" x="0px" y="0px"
	 width="180px" height="64px" viewBox="0 0 180 64" style="enable-background:new 0 0 180 64;" xml:space="preserve">
<defs>
<style>.cls-1{fill:#fff;}</style>
</defs>
<title>GDOTLogo</title>
<path class="cls-1" d="M27.83,26.74v6.14H47.59a13.41,13.41,0,0,1-4.76,5.46,14.5,14.5,0,0,1-8,2.49,14.9,14.9,0,0,1-10.3-4.06,13.71,13.71,0,0,1-4.34-10,14.36,14.36,0,0,1,14.49-14.2,13.64,13.64,0,0,1,12.14,7H54a18.62,18.62,0,0,0-3.42-6A21.29,21.29,0,0,0,20,12.22a19.66,19.66,0,0,0,.06,28.87,21.14,21.14,0,0,0,28.62.56c7-6,6.8-14.92,6.8-14.92Z" transform="translate(-13.74 -6.2)"/><path class="cls-1" d="M89,26.63A13.47,13.47,0,0,1,83.85,37.5C80.43,40,76.6,40.18,73,40.18H68.32v-27h3.85c3.82,0,7.84.2,11.21,2.55A13.17,13.17,0,0,1,89,26.63M86.53,10.26A24.4,24.4,0,0,0,73.89,7H61.84V46.32H73.89a24.4,24.4,0,0,0,12.64-3.23,19.55,19.55,0,0,0,0-32.83" transform="translate(-13.74 -6.2)"/><polygon class="cls-1" points="129.79 0.84 129.79 6.97 138.44 6.97 138.44 38.7 138.44 39.27 138.44 39.56 138.44 39.7 138.44 40.12 138.86 40.12 138.99 40.12 139.28 40.12 139.85 40.12 143.5 40.12 144.07 40.12 144.36 40.12 144.5 40.12 144.92 40.12 144.92 39.7 144.92 39.56 144.92 39.27 144.92 38.7 144.92 6.97 153.52 6.97 153.52 0.84 129.79 0.84"/><path class="cls-1" d="M131.22,46.12a8.62,8.62,0,0,0,2.9-1.85c-5.87-3.41-7.25-11.92-3.26-16.12-10.38,3.47-20.22.34-29.71-6.88a14.77,14.77,0,0,0-.57,4.27c9,7.28,22.25,5.59,22.32,5.58s-8.41,3.11-22.49-2c0,9.29,9.56,20.54,23.67,19.19a18.27,18.27,0,0,0,4.57-1c-1.74-2.55-2.9-7.94-1.63-12.68,0-.16-1,6.75,4.19,11.52" transform="translate(-13.74 -6.2)"/><path class="cls-1" d="M142.43,23.52a20.41,20.41,0,0,0-5.89-11.29,20.64,20.64,0,0,0-29-.21l0,0a22,22,0,0,0-4.62,6.64l-.38.86a10,10,0,0,0,2.14,1.85,12.24,12.24,0,0,0,2.88,1.63s3.87-10.91,14.4-11a14.5,14.5,0,0,1,10.37,4.35,14.7,14.7,0,0,1,4.06,7.45,14.24,14.24,0,0,1,.29,2.88,15.62,15.62,0,0,1-5.13,11l-.44.37A10.26,10.26,0,0,0,135,42.65l.67-.56A21.08,21.08,0,0,0,140.89,35l0-.09a19.9,19.9,0,0,0,1.76-8.19,20.12,20.12,0,0,0-.26-3.22" transform="translate(-13.74 -6.2)"/><path class="cls-1" d="M25.12,54.16a2.87,2.87,0,0,1-.19,1,2.61,2.61,0,0,1-.55.86,2.71,2.71,0,0,1-.85.6,2.77,2.77,0,0,1-1.16.26A2.71,2.71,0,0,1,20,55.54a2.74,2.74,0,0,1-.36-1.38,2.83,2.83,0,0,1,.79-2,2.68,2.68,0,0,1,.87-.6,2.71,2.71,0,0,1,2,0,2.7,2.7,0,0,1,1.44,1.26h-.91a2.27,2.27,0,0,0-.66-.54,1.68,1.68,0,0,0-.79-.19,1.84,1.84,0,0,0-1,.28,2,2,0,0,0-.71.76,2.09,2.09,0,0,0-.26,1,2,2,0,0,0,.15.77,2.1,2.1,0,0,0,.43.66,2,2,0,0,0,.64.45,1.84,1.84,0,0,0,.76.16,1.86,1.86,0,0,0,.78-.16,1.89,1.89,0,0,0,.63-.47,2.28,2.28,0,0,0,.42-.69H21.75v-.71Z" transform="translate(-13.74 -6.2)"/><path class="cls-1" d="M29,54.56a1.16,1.16,0,0,0-.21-.59,1.32,1.32,0,0,0-.47-.42,1.27,1.27,0,0,0-1.22,0,1.32,1.32,0,0,0-.47.42,1.15,1.15,0,0,0-.2.59Zm.75.2a3.42,3.42,0,0,1,0,.38h-3.3a1.53,1.53,0,0,0,.26.55,1.32,1.32,0,0,0,.46.39,1.28,1.28,0,0,0,.59.14,1.3,1.3,0,0,0,.67-.18,1.17,1.17,0,0,0,.47-.48h.75a2.07,2.07,0,0,1-.75,1,2,2,0,0,1-1.16.37,1.9,1.9,0,0,1-.78-.17,2,2,0,0,1-.65-.47,2.18,2.18,0,0,1-.44-.68,2.07,2.07,0,0,1-.15-.79,2.14,2.14,0,0,1,.15-.8,2.05,2.05,0,0,1,.44-.68,2,2,0,0,1,.66-.45,2,2,0,0,1,.8-.16,2,2,0,0,1,.79.16,2,2,0,0,1,.65.44,2.09,2.09,0,0,1,.43.66,2,2,0,0,1,.16.78" transform="translate(-13.74 -6.2)"/><path class="cls-1" d="M33.95,54.8a1.38,1.38,0,0,0-.11-.55,1.45,1.45,0,0,0-.3-.45,1.33,1.33,0,0,0-.45-.3,1.41,1.41,0,0,0-.55-.11,1.4,1.4,0,0,0-1.21.7A1.42,1.42,0,0,0,31.84,56a1.4,1.4,0,0,0,1.41,0,1.44,1.44,0,0,0,.7-1.23m.75,0a2.16,2.16,0,0,1-.7,1.56,2.08,2.08,0,0,1-.67.41,2.19,2.19,0,0,1-.78.14,2.12,2.12,0,0,1-1.07-.28,2.15,2.15,0,0,1-.79-.77,2,2,0,0,1-.29-1.06,2,2,0,0,1,.17-.81,2,2,0,0,1,.47-.67,2.22,2.22,0,0,1,.69-.44,2.21,2.21,0,0,1,2.33.45,2.06,2.06,0,0,1,.47.66,2,2,0,0,1,.17.82" transform="translate(-13.74 -6.2)"/><path class="cls-1" d="M37.19,53.49a1.08,1.08,0,0,0-.28,0,1.12,1.12,0,0,0-.26.1.69.69,0,0,0-.34.4,1.71,1.71,0,0,0-.1.6v2.18h-.75v-4h.7v.36h0a1,1,0,0,1,.43-.35,1.63,1.63,0,0,1,.58-.12Z" transform="translate(-13.74 -6.2)"/><path class="cls-1" d="M41.09,54.82a1.48,1.48,0,0,0-.22-.81,1.27,1.27,0,0,0-.64-.5,1.54,1.54,0,0,0-.53-.11,1.31,1.31,0,0,0-.7.19,1.44,1.44,0,0,0-.68,1.23,1.39,1.39,0,0,0,.18.7A1.4,1.4,0,0,0,39,56a1.3,1.3,0,0,0,.69.2,1.4,1.4,0,0,0,.53-.1,1.26,1.26,0,0,0,.43-.29,1.53,1.53,0,0,0,.3-.46,1.29,1.29,0,0,0,.13-.55m.75,1.44a2.33,2.33,0,0,1-.26,1.14,1.72,1.72,0,0,1-.75.72,2.52,2.52,0,0,1-1.15.25,2.24,2.24,0,0,1-.82-.15,2,2,0,0,1-.68-.43,2,2,0,0,1-.47-.68h.83a1.35,1.35,0,0,0,.31.32,1.25,1.25,0,0,0,.38.19,1.52,1.52,0,0,0,.45.06,1.4,1.4,0,0,0,1-.36,1.43,1.43,0,0,0,.36-1h0a1.39,1.39,0,0,1-.6.47,2,2,0,0,1-.78.16,2.06,2.06,0,0,1-1.05-.29,2.16,2.16,0,0,1-.79-.77,2,2,0,0,1-.29-1,1.94,1.94,0,0,1,.21-.89,2.08,2.08,0,0,1,.78-.88,2.15,2.15,0,0,1,1.14-.31,2.07,2.07,0,0,1,.5.06,2,2,0,0,1,.48.19,1.48,1.48,0,0,1,.39.31v-.46h.75Z" transform="translate(-13.74 -6.2)"/><path class="cls-1" d="M43.68,56.81h-.75v-4h.75Zm0-4.45h-.75v-.88h.75Z" transform="translate(-13.74 -6.2)"/><path class="cls-1" d="M47.94,54.82a1.56,1.56,0,0,0-.1-.56,1.38,1.38,0,0,0-.28-.46,1.27,1.27,0,0,0-.44-.3,1.44,1.44,0,0,0-.56-.11,1.3,1.3,0,0,0-.7.19,1.37,1.37,0,0,0-.49.52,1.48,1.48,0,0,0-.18.71,1.41,1.41,0,0,0,.18.69,1.37,1.37,0,0,0,.5.52,1.29,1.29,0,0,0,.68.19,1.35,1.35,0,0,0,.7-.19,1.4,1.4,0,0,0,.69-1.21m.73,2h-.75v-.62h0a1.36,1.36,0,0,1-.57.54,1.71,1.71,0,0,1-.79.18,2.19,2.19,0,0,1-.83-.16,2.07,2.07,0,0,1-.68-.43,2,2,0,0,1-.45-.67,2.1,2.1,0,0,1-.16-.82A2.18,2.18,0,0,1,44.6,54a2,2,0,0,1,1.12-1.12,2.18,2.18,0,0,1,.83-.16,1.9,1.9,0,0,1,.52.07,1.55,1.55,0,0,1,.47.23,1.37,1.37,0,0,1,.36.37h0v-.56h.75Z" transform="translate(-13.74 -6.2)"/><path class="cls-1" d="M56.47,54.16a2.27,2.27,0,0,0-.16-.81,1.85,1.85,0,0,0-.29-.5,1.67,1.67,0,0,0-.41-.36,1.81,1.81,0,0,0-.5-.21,2.29,2.29,0,0,0-.58-.07h-.94v3.9h.93a2.27,2.27,0,0,0,1-.23,1.56,1.56,0,0,0,.68-.67,2.17,2.17,0,0,0,.24-1m.78,0a3.25,3.25,0,0,1-.18,1,2.13,2.13,0,0,1-.49.85,2.49,2.49,0,0,1-.93.59,3.49,3.49,0,0,1-1.15.18H52.8V51.48h1.73a2.47,2.47,0,0,1,2.17,1,2.9,2.9,0,0,1,.4.8,2.85,2.85,0,0,1,.15.9" transform="translate(-13.74 -6.2)"/><path class="cls-1" d="M61.27,54.56a1.16,1.16,0,0,0-.21-.59,1.32,1.32,0,0,0-.47-.42,1.28,1.28,0,0,0-1.22,0,1.33,1.33,0,0,0-.47.42,1.15,1.15,0,0,0-.2.59Zm.75.2a3.42,3.42,0,0,1,0,.38H58.7a1.53,1.53,0,0,0,.26.55,1.31,1.31,0,0,0,.46.39,1.28,1.28,0,0,0,.59.14,1.3,1.3,0,0,0,.67-.18,1.17,1.17,0,0,0,.47-.48h.75a2.07,2.07,0,0,1-.75,1,2,2,0,0,1-1.16.37,1.9,1.9,0,0,1-.78-.17,2,2,0,0,1-.65-.47,2.18,2.18,0,0,1-.44-.68,2.07,2.07,0,0,1-.15-.79,2.14,2.14,0,0,1,.15-.8,2.06,2.06,0,0,1,.43-.68,2,2,0,0,1,.66-.45,2,2,0,0,1,.8-.16,2,2,0,0,1,.79.16,2,2,0,0,1,.65.44,2.09,2.09,0,0,1,.43.66,2,2,0,0,1,.16.78" transform="translate(-13.74 -6.2)"/><path class="cls-1" d="M66.27,54.82a1.45,1.45,0,0,0-.18-.7,1.4,1.4,0,0,0-.5-.53,1.28,1.28,0,0,0-.69-.2,1.25,1.25,0,0,0-.68.19,1.35,1.35,0,0,0-.48.52,1.5,1.5,0,0,0,0,1.4,1.32,1.32,0,0,0,.48.52,1.33,1.33,0,0,0,1.87-.51,1.47,1.47,0,0,0,.17-.7m.75,0a2,2,0,0,1-.27,1,2,2,0,0,1-.73.74,2,2,0,0,1-1,.27,2,2,0,0,1-.81-.17,1.26,1.26,0,0,1-.59-.51h0v1.91h-.75V52.82h.68v.61h0a1.62,1.62,0,0,1,.61-.53,1.78,1.78,0,0,1,.8-.18,2.12,2.12,0,0,1,.84.17,1.89,1.89,0,0,1,.66.45,2.06,2.06,0,0,1,.42.69,2.38,2.38,0,0,1,.15.84" transform="translate(-13.74 -6.2)"/><path class="cls-1" d="M71.13,54.82a1.56,1.56,0,0,0-.1-.56,1.38,1.38,0,0,0-.28-.46,1.27,1.27,0,0,0-.44-.3,1.44,1.44,0,0,0-.56-.11,1.3,1.3,0,0,0-.7.19,1.37,1.37,0,0,0-.49.52,1.48,1.48,0,0,0-.18.71,1.41,1.41,0,0,0,.18.69,1.38,1.38,0,0,0,.49.52,1.29,1.29,0,0,0,.68.19,1.35,1.35,0,0,0,.7-.19,1.4,1.4,0,0,0,.69-1.21m.73,2h-.75v-.62h0a1.36,1.36,0,0,1-.57.54,1.71,1.71,0,0,1-.79.18,2.19,2.19,0,0,1-.83-.16,2.07,2.07,0,0,1-.68-.43,2,2,0,0,1-.45-.67,2.1,2.1,0,0,1-.16-.82A2.18,2.18,0,0,1,67.8,54a2,2,0,0,1,1.12-1.12,2.18,2.18,0,0,1,.83-.16,1.9,1.9,0,0,1,.52.07,1.55,1.55,0,0,1,.47.23,1.37,1.37,0,0,1,.36.37h0v-.56h.75Z" transform="translate(-13.74 -6.2)"/><path class="cls-1" d="M74.7,53.49a1.08,1.08,0,0,0-.28,0,1.12,1.12,0,0,0-.26.1.69.69,0,0,0-.34.4,1.71,1.71,0,0,0-.1.6v2.18H73v-4h.7v.36h0a1,1,0,0,1,.43-.35,1.63,1.63,0,0,1,.58-.12Z" transform="translate(-13.74 -6.2)"/><polygon class="cls-1" points="63.64 47.31 62.99 47.31 62.99 50.61 62.24 50.61 62.24 47.31 61.7 47.31 61.7 46.62 62.24 46.62 62.24 45.29 62.99 45.29 62.99 46.62 63.64 46.62 63.64 47.31"/><path class="cls-1" d="M84.28,56.81h-.75V54.59a1.57,1.57,0,0,0-.21-.86.8.8,0,0,0-.73-.33,1,1,0,0,0-.58.15.78.78,0,0,0-.29.41,2.1,2.1,0,0,0-.08.62v2.22h-.75V54.59a3.15,3.15,0,0,0,0-.47.94.94,0,0,0-.14-.35A.82.82,0,0,0,80,53.4q-1,0-1,1.19v2.22h-.75v-4h.69v.43h0a1.61,1.61,0,0,1,.5-.41,1.48,1.48,0,0,1,.64-.12,1.62,1.62,0,0,1,.73.18,1,1,0,0,1,.5.49,1.35,1.35,0,0,1,.55-.51,1.75,1.75,0,0,1,.77-.16,1.79,1.79,0,0,1,.88.21,1.31,1.31,0,0,1,.55.59,2,2,0,0,1,.19.89Z" transform="translate(-13.74 -6.2)"/><path class="cls-1" d="M88.39,54.56a1.16,1.16,0,0,0-.21-.59,1.32,1.32,0,0,0-.47-.42,1.27,1.27,0,0,0-1.22,0A1.32,1.32,0,0,0,86,54a1.15,1.15,0,0,0-.2.59Zm.75.2a3.42,3.42,0,0,1,0,.38h-3.3a1.53,1.53,0,0,0,.26.55,1.32,1.32,0,0,0,.46.39,1.28,1.28,0,0,0,.59.14,1.3,1.3,0,0,0,.67-.18,1.17,1.17,0,0,0,.47-.48H89a2.07,2.07,0,0,1-.75,1,2,2,0,0,1-1.16.37,1.9,1.9,0,0,1-.78-.17,2,2,0,0,1-.65-.47,2.18,2.18,0,0,1-.44-.68,2.07,2.07,0,0,1-.15-.79,2.14,2.14,0,0,1,.15-.8,2.05,2.05,0,0,1,.44-.68,2,2,0,0,1,.66-.45,2,2,0,0,1,.8-.16,2,2,0,0,1,.79.16,2,2,0,0,1,.65.44A2.09,2.09,0,0,1,89,54a2,2,0,0,1,.16.78" transform="translate(-13.74 -6.2)"/><path class="cls-1" d="M93.56,56.81h-.75V54.64a1.64,1.64,0,0,0-.22-.91.86.86,0,0,0-.77-.34.92.92,0,0,0-.79.35,1.44,1.44,0,0,0-.26.89v2.17H90v-4h.7v.42h0a1.24,1.24,0,0,1,.51-.4,1.66,1.66,0,0,1,.66-.13,2,2,0,0,1,.55.08,1.55,1.55,0,0,1,.48.24,1.41,1.41,0,0,1,.37.4,1.87,1.87,0,0,1,.25,1Z" transform="translate(-13.74 -6.2)"/><polygon class="cls-1" points="82.41 47.31 81.76 47.31 81.76 50.61 81.01 50.61 81.01 47.31 80.47 47.31 80.47 46.62 81.01 46.62 81.01 45.29 81.76 45.29 81.76 46.62 82.41 46.62 82.41 47.31"/><path class="cls-1" d="M102,54.8a1.38,1.38,0,0,0-.11-.55,1.45,1.45,0,0,0-.3-.45,1.33,1.33,0,0,0-.45-.3,1.41,1.41,0,0,0-.55-.11,1.4,1.4,0,0,0-1.21.7A1.42,1.42,0,0,0,99.88,56a1.4,1.4,0,0,0,1.41,0,1.44,1.44,0,0,0,.7-1.23m.75,0a2.16,2.16,0,0,1-.7,1.56,2.08,2.08,0,0,1-.67.41,2.19,2.19,0,0,1-.78.14,2.12,2.12,0,0,1-1.07-.28,2.15,2.15,0,0,1-.79-.77,2,2,0,0,1-.29-1.06A2,2,0,0,1,98.6,54a2,2,0,0,1,.47-.67,2.22,2.22,0,0,1,.69-.44,2.21,2.21,0,0,1,2.33.45,2.06,2.06,0,0,1,.47.66,2,2,0,0,1,.17.82" transform="translate(-13.74 -6.2)"/><path class="cls-1" d="M105.1,53.51h-.7v3.3h-.75v-3.3h-.35v-.69h.35v-.19a1,1,0,0,1,.48-.93,1.26,1.26,0,0,1,.29-.15,1.16,1.16,0,0,1,.29-.06h.38v.69q-.7,0-.7.46v.19h.7Z" transform="translate(-13.74 -6.2)"/><polygon class="cls-1" points="96.65 46 95.63 46 95.63 50.61 94.85 50.61 94.85 46 93.83 46 93.83 45.29 96.65 45.29 96.65 46"/><path class="cls-1" d="M112.59,53.49a1.08,1.08,0,0,0-.28,0,1.12,1.12,0,0,0-.26.1.69.69,0,0,0-.34.4,1.71,1.71,0,0,0-.1.6v2.18h-.75v-4h.7v.36h0a1,1,0,0,1,.43-.35,1.63,1.63,0,0,1,.58-.12Z" transform="translate(-13.74 -6.2)"/><path class="cls-1" d="M116.59,54.82a1.56,1.56,0,0,0-.1-.56,1.38,1.38,0,0,0-.28-.46,1.27,1.27,0,0,0-.44-.3,1.44,1.44,0,0,0-.56-.11,1.3,1.3,0,0,0-.7.19,1.38,1.38,0,0,0-.49.52,1.48,1.48,0,0,0-.18.71,1.41,1.41,0,0,0,.18.69,1.38,1.38,0,0,0,.49.52,1.29,1.29,0,0,0,.68.19,1.35,1.35,0,0,0,.7-.19,1.4,1.4,0,0,0,.69-1.21m.73,2h-.75v-.62h0a1.36,1.36,0,0,1-.57.54,1.71,1.71,0,0,1-.79.18,2.19,2.19,0,0,1-.83-.16,2.07,2.07,0,0,1-.68-.43,2,2,0,0,1-.45-.67,2.1,2.1,0,0,1-.16-.82,2.18,2.18,0,0,1,.16-.84,2,2,0,0,1,1.12-1.12,2.18,2.18,0,0,1,.83-.16,1.9,1.9,0,0,1,.52.07,1.55,1.55,0,0,1,.47.23,1.37,1.37,0,0,1,.36.37h0v-.56h.75Z" transform="translate(-13.74 -6.2)"/><path class="cls-1" d="M122,56.81h-.75V54.64a1.64,1.64,0,0,0-.22-.91.86.86,0,0,0-.77-.34.92.92,0,0,0-.79.35,1.44,1.44,0,0,0-.26.89v2.17h-.75v-4h.7v.42h0a1.24,1.24,0,0,1,.51-.4,1.66,1.66,0,0,1,.66-.13,2,2,0,0,1,.55.08,1.55,1.55,0,0,1,.48.24,1.41,1.41,0,0,1,.37.4,1.87,1.87,0,0,1,.25,1Z" transform="translate(-13.74 -6.2)"/><path class="cls-1" d="M125.47,55.64a1.2,1.2,0,0,1-.38.93,1.36,1.36,0,0,1-1,.35,1.58,1.58,0,0,1-.51-.1,1.31,1.31,0,0,1-.67-.5,1.43,1.43,0,0,1-.23-.82h.75a.87.87,0,0,0,.19.53.6.6,0,0,0,.48.2.66.66,0,0,0,.3-.06.48.48,0,0,0,.2-.19.56.56,0,0,0,.07-.29.41.41,0,0,0-.19-.38,5.31,5.31,0,0,0-.67-.29,2,2,0,0,1-.72-.42,1,1,0,0,1-.24-.71,1,1,0,0,1,.17-.59,1.18,1.18,0,0,1,.47-.41,1.37,1.37,0,0,1,.61-.15,1.31,1.31,0,0,1,.48.08A1.21,1.21,0,0,1,125,53a1.07,1.07,0,0,1,.26.37,1.21,1.21,0,0,1,.1.47h-.75a.58.58,0,0,0-.16-.35.48.48,0,0,0-.35-.13.49.49,0,0,0-.33.12.39.39,0,0,0-.14.31.37.37,0,0,0,.09.26.58.58,0,0,0,.21.15l.32.11a2.17,2.17,0,0,1,.88.46,1.08,1.08,0,0,1,.32.83" transform="translate(-13.74 -6.2)"/><path class="cls-1" d="M129.69,54.82a1.45,1.45,0,0,0-.18-.7,1.4,1.4,0,0,0-.5-.53,1.28,1.28,0,0,0-.69-.2,1.25,1.25,0,0,0-.68.19,1.35,1.35,0,0,0-.48.52,1.5,1.5,0,0,0,0,1.4,1.32,1.32,0,0,0,.48.52,1.33,1.33,0,0,0,1.87-.51,1.47,1.47,0,0,0,.17-.7m.75,0a2,2,0,0,1-.27,1,2,2,0,0,1-.73.74,2,2,0,0,1-1,.27,2,2,0,0,1-.81-.17,1.26,1.26,0,0,1-.59-.51h0v1.91h-.75V52.82h.68v.61h0a1.62,1.62,0,0,1,.61-.53,1.78,1.78,0,0,1,.8-.18,2.12,2.12,0,0,1,.84.17,1.89,1.89,0,0,1,.66.45,2.06,2.06,0,0,1,.42.69,2.38,2.38,0,0,1,.15.84" transform="translate(-13.74 -6.2)"/><path class="cls-1" d="M134.55,54.8a1.38,1.38,0,0,0-.11-.55,1.45,1.45,0,0,0-.3-.45,1.33,1.33,0,0,0-.45-.3,1.41,1.41,0,0,0-.55-.11,1.4,1.4,0,0,0-1.21.7,1.43,1.43,0,0,0,0,1.41,1.39,1.39,0,0,0,.51.52,1.4,1.4,0,0,0,1.41,0,1.44,1.44,0,0,0,.7-1.23m.75,0a2.16,2.16,0,0,1-.7,1.56,2.08,2.08,0,0,1-.67.41,2.19,2.19,0,0,1-.78.14,2.12,2.12,0,0,1-1.07-.28,2.15,2.15,0,0,1-.79-.77,2,2,0,0,1-.29-1.06,2,2,0,0,1,.17-.81,2,2,0,0,1,.47-.67,2.22,2.22,0,0,1,.69-.44,2.21,2.21,0,0,1,2.33.45,2.06,2.06,0,0,1,.47.66,2,2,0,0,1,.17.82" transform="translate(-13.74 -6.2)"/><path class="cls-1" d="M137.79,53.49a1.08,1.08,0,0,0-.28,0,1.12,1.12,0,0,0-.26.1.69.69,0,0,0-.34.4,1.71,1.71,0,0,0-.1.6v2.18h-.75v-4h.7v.36h0a1,1,0,0,1,.43-.35,1.63,1.63,0,0,1,.58-.12Z" transform="translate(-13.74 -6.2)"/><polygon class="cls-1" points="126.68 47.31 126.03 47.31 126.03 50.61 125.28 50.61 125.28 47.31 124.74 47.31 124.74 46.62 125.28 46.62 125.28 45.29 126.03 45.29 126.03 46.62 126.68 46.62 126.68 47.31"/><path class="cls-1" d="M144.22,54.82a1.56,1.56,0,0,0-.1-.56,1.38,1.38,0,0,0-.28-.46,1.27,1.27,0,0,0-.44-.3,1.44,1.44,0,0,0-.56-.11,1.3,1.3,0,0,0-.7.19,1.38,1.38,0,0,0-.49.52,1.48,1.48,0,0,0-.18.71,1.41,1.41,0,0,0,.18.69,1.38,1.38,0,0,0,.49.52,1.29,1.29,0,0,0,.68.19,1.35,1.35,0,0,0,.7-.19,1.4,1.4,0,0,0,.69-1.21m.73,2h-.75v-.62h0a1.36,1.36,0,0,1-.57.54,1.71,1.71,0,0,1-.79.18,2.19,2.19,0,0,1-.83-.16,2.07,2.07,0,0,1-.68-.43,2,2,0,0,1-.45-.67,2.1,2.1,0,0,1-.16-.82,2.18,2.18,0,0,1,.16-.84A2,2,0,0,1,142,52.88a2.18,2.18,0,0,1,.83-.16,1.9,1.9,0,0,1,.52.07,1.55,1.55,0,0,1,.47.23,1.37,1.37,0,0,1,.36.37h0v-.56H145Z" transform="translate(-13.74 -6.2)"/><polygon class="cls-1" points="133.98 47.31 133.32 47.31 133.32 50.61 132.58 50.61 132.58 47.31 132.04 47.31 132.04 46.62 132.58 46.62 132.58 45.29 133.32 45.29 133.32 46.62 133.98 46.62 133.98 47.31"/><path class="cls-1" d="M149.25,56.81h-.75v-4h.75Zm0-4.45h-.75v-.88h.75Z" transform="translate(-13.74 -6.2)"/><path class="cls-1" d="M153.57,54.8a1.38,1.38,0,0,0-.11-.55,1.45,1.45,0,0,0-.3-.45,1.33,1.33,0,0,0-.45-.3,1.41,1.41,0,0,0-.55-.11,1.4,1.4,0,0,0-1.21.7,1.42,1.42,0,0,0,.51,1.93,1.4,1.4,0,0,0,1.41,0,1.44,1.44,0,0,0,.7-1.23m.75,0a2.14,2.14,0,0,1-.23.92,2.17,2.17,0,0,1-.48.64,2.08,2.08,0,0,1-.67.41,2.19,2.19,0,0,1-.78.14,2.12,2.12,0,0,1-1.07-.28,2.15,2.15,0,0,1-.79-.77,2,2,0,0,1-.29-1.06,2,2,0,0,1,.17-.81,2,2,0,0,1,.47-.67,2.22,2.22,0,0,1,.69-.44,2.21,2.21,0,0,1,2.33.45,2.06,2.06,0,0,1,.47.66,2,2,0,0,1,.17.82" transform="translate(-13.74 -6.2)"/><path class="cls-1" d="M158.75,56.81H158V54.64a1.64,1.64,0,0,0-.22-.91.86.86,0,0,0-.77-.34.92.92,0,0,0-.79.35,1.44,1.44,0,0,0-.26.89v2.17h-.75v-4h.7v.42h0a1.24,1.24,0,0,1,.51-.4,1.66,1.66,0,0,1,.66-.13,2,2,0,0,1,.55.08,1.55,1.55,0,0,1,.48.24,1.41,1.41,0,0,1,.37.4,1.87,1.87,0,0,1,.25,1Z" transform="translate(-13.74 -6.2)"/></svg>